<?xml version="1.0" encoding="UTF-8"?>
<svg xmlns="http://www.w3.org/2000/svg" width="693" height="606" viewBox="0 0 693 606" fill="none"><path d="M204.406 116.726C256.719 95.8444 318 79.2384 371.572 96.5615C425.145 113.885 471.009 165.137 512.988 221.391C555.02 277.793 592.956 339.074 575.356 377.793C557.755 416.511 484.462 432.691 429.932 452.051C375.402 471.41 339.636 493.947 297.809 495.396C255.982 496.845 207.935 477.23 173.031 446.752C138.074 416.361 116.207 374.96 100.442 330.079C84.6766 285.199 75.0131 236.605 91.8806 199.803C108.801 162.914 152.146 137.756 204.406 116.726Z" fill="#71DA80"/><path d="M565.444 263.925V546.355" stroke="#315466" stroke-width="10" stroke-miterlimit="10"/><path d="M565.444 370.648V541.697" stroke="#315466" stroke-width="20" stroke-miterlimit="10" stroke-linecap="round"/><path d="M355.922 341.734V201.215C355.922 198.291 358.263 195.953 361.189 195.953H374.551C375.916 195.953 377.282 196.537 378.257 197.512L389.765 208.913C390.741 209.888 391.326 211.252 391.326 212.616V232.398C391.326 233.762 391.911 235.126 392.886 236.101L403.615 246.82C404.59 247.795 405.175 249.159 405.175 250.523V369.116C405.175 372.04 402.835 374.379 399.909 374.379H361.189C358.263 374.379 355.922 372.04 355.922 369.116V341.734Z" fill="white"/><path d="M300.567 115.326L331.47 154.87C333.408 157.351 334.549 160.853 334.549 164.355V359.013C334.549 366.163 330.215 372 324.628 372.438C299.541 374.189 235.113 378.274 235.113 371.708V124.811C235.113 117.369 239.789 111.386 245.604 111.386H293.041C296.006 111.532 298.629 112.845 300.567 115.326Z" fill="#315566"/><path d="M209.659 172.773L191.714 192.773L191.601 158.716L186.149 158.602V199.058L174.565 211.972C171.725 215.058 170.249 219.172 170.249 223.401V496.312H213.066V172.887H209.659V172.773Z" fill="white"/><g style="mix-blend-mode:multiply"><path d="M92.4275 540.338C289.257 523.028 470.726 532.998 654.176 539.507C674.592 540.199 691.044 545.046 692.234 551.139C692.63 552.801 691.837 554.601 689.161 555.986C664.781 567.203 598.873 566.095 524.938 575.65C448.624 585.344 399.764 571.08 321.765 569.972C243.767 568.865 101.05 562.218 78.4532 555.017C78.354 555.017 78.2549 554.878 78.1558 554.878C63.4877 549.893 71.3173 542.276 92.4275 540.338Z" fill="#E9EBEC"/></g><path d="M573.736 552.079C588.295 552.079 600.154 531.704 600.154 506.576C600.154 481.447 588.295 461.073 573.736 461.073C559.177 461.073 547.317 481.447 547.317 506.576C547.317 531.704 559.177 552.079 573.736 552.079Z" fill="#3B3242"/><path d="M182.665 527.435H214.868V552.079C214.868 552.079 234.538 552.079 245.433 552.079C256.328 552.079 262.788 534.13 262.788 534.13H346.286V552.079C346.286 552.079 368.751 552.079 377.622 552.079C386.492 552.079 393.434 534.615 393.434 534.615H422.263V552.079C422.263 552.079 440.39 552.079 450.224 552.079C460.059 552.079 469.412 534.906 469.412 534.906H573.639V552.079C573.639 552.079 597.551 552.079 606.807 552.079C616.063 552.079 626.573 528.988 626.573 521.226C626.573 513.464 600.251 446.228 600.251 446.228L189.607 440.019L178.037 484.261L182.665 527.435Z" fill="#1A2331"/><path d="M216.025 552.079C230.585 552.079 242.444 531.704 242.444 506.576C242.444 481.447 230.585 461.073 216.025 461.073C201.466 461.073 189.607 481.447 189.607 506.576C189.607 531.704 201.37 552.079 216.025 552.079Z" fill="#273C44"/><path d="M346.093 552.079C360.652 552.079 372.512 531.704 372.512 506.576C372.512 481.447 360.652 461.073 346.093 461.073C331.534 461.073 319.675 481.447 319.675 506.576C319.771 531.704 331.534 552.079 346.093 552.079Z" fill="#273C44"/><path d="M422.07 552.079C436.629 552.079 448.489 531.704 448.489 506.576C448.489 481.447 436.629 461.073 422.07 461.073C407.511 461.073 395.652 481.447 395.652 506.576C395.748 531.704 407.511 552.079 422.07 552.079Z" fill="#273C44"/><path d="M573.736 552.079C588.295 552.079 600.154 531.704 600.154 506.576C600.154 481.447 588.295 461.073 573.736 461.073C559.177 461.073 547.317 481.447 547.317 506.576C547.317 531.704 559.177 552.079 573.736 552.079Z" fill="#273C44"/><path d="M574.025 414.697C574.025 414.697 558.405 380.448 506.34 348.916C454.274 317.384 268.766 320.101 214.001 357.163C214.001 357.163 209.469 368.32 216.315 374.724C216.315 374.724 182.665 408.099 175.53 436.817C168.395 465.536 162.417 515.502 182.665 527.241C182.665 527.241 170.709 454.087 213.229 454.087C231.934 454.087 239.455 477.081 239.455 493.09C239.455 509.001 242.444 527.241 249.386 527.241H388.324C388.324 527.241 379.068 454.378 417.828 454.378C443.379 454.378 447.043 486.201 446.561 507.74C446.271 518.412 454.756 527.144 465.362 527.144C465.362 527.144 529.191 531.801 576.243 530.831C623.295 529.861 647.688 521.42 647.688 500.56C647.785 500.949 664.272 413.823 574.025 414.697Z" fill="#62A9CC"/><path d="M442.704 414.988H560.816C560.816 414.988 530.444 363.178 476.258 348.528C458.902 342.61 401.244 343.289 380.9 343.871C378.972 343.871 378.201 346.587 379.936 347.558C392.856 355.513 423.517 377.149 442.704 414.988Z" fill="white"/><path d="M232.224 414.988H414.55C418.214 414.988 420.721 411.01 418.985 407.711C411.754 393.74 392.374 363.76 355.06 352.797C308.201 338.826 235.598 353.864 225.282 406.644C224.317 410.913 227.788 414.988 232.224 414.988Z" fill="#1A2331"/><path d="M288.05 406.741C288.146 398.591 289.014 374.53 293.931 357.26C293.931 357.26 246.397 358.327 231.163 405.77C230.585 407.614 232.031 409.651 233.959 409.651H285.157C286.7 409.554 288.05 408.293 288.05 406.741Z" fill="white"/><path d="M305.983 354.931C305.983 354.931 301.837 366.671 301.837 409.457H390.253L400.569 390.538C400.473 390.635 370.294 349.401 305.983 354.931Z" fill="white"/><path d="M380.611 527.436H311.286V534.13H380.611V527.436Z" fill="#1A2331"/><path d="M585.788 231.423H545.293C542.593 231.423 540.086 232.878 538.736 235.207L518.488 270.522C517.139 272.851 517.139 275.762 518.488 278.09L538.736 313.406C540.086 315.734 542.593 317.19 545.293 317.19H585.788C588.488 317.19 590.995 315.734 592.345 313.406L612.592 278.09C613.942 275.762 613.942 272.851 612.592 270.522L592.345 235.207C590.898 232.878 588.488 231.423 585.788 231.423Z" fill="#62A9CC"/><path d="M583.377 236.468H547.606C545.292 236.468 543.075 237.729 541.918 239.767L523.984 271.007C522.827 273.045 522.827 275.567 523.984 277.605L541.918 308.846C543.075 310.883 545.292 312.144 547.606 312.144H583.377C585.691 312.144 587.909 310.883 589.066 308.846L607 277.605C608.157 275.567 608.157 273.045 607 271.007L589.066 239.767C587.909 237.729 585.788 236.468 583.377 236.468Z" fill="#315466"/><path d="M570.168 283.232C570.168 281.874 569.782 280.807 569.107 280.03C568.432 279.254 567.083 278.575 565.251 277.896C563.419 277.217 561.683 276.538 560.141 275.858C558.598 275.179 557.248 274.306 556.091 273.433C554.934 272.56 554.066 271.493 553.488 270.231C552.909 269.067 552.62 267.515 552.62 265.865C552.62 262.955 553.681 260.626 555.898 258.783C558.019 256.939 560.912 255.872 564.576 255.484V250.051H569.107V255.581C572.578 256.066 575.278 257.327 577.303 259.462C577.496 259.656 577.689 259.947 577.978 260.238C580.292 263.149 578.171 267.515 574.41 267.515C572.578 267.515 570.939 266.35 570.264 264.604C570.072 264.119 569.879 263.731 569.59 263.343C568.818 262.373 567.758 261.887 566.311 261.887C565.058 261.887 564.094 262.275 563.419 262.955C562.744 263.634 562.358 264.604 562.358 265.865C562.358 267.127 562.744 268.097 563.515 268.873C564.287 269.649 565.636 270.328 567.372 271.007C569.107 271.687 570.747 272.366 572.386 273.142C573.928 273.821 575.278 274.694 576.435 275.567C577.592 276.441 578.46 277.605 579.135 278.769C579.81 280.03 580.099 281.486 580.099 283.232C580.099 286.143 579.038 288.568 577.014 290.315C574.989 292.158 572.193 293.225 568.625 293.516V298.659H564.094V293.516C559.948 293.128 556.766 291.867 554.548 289.733C554.163 289.344 553.777 288.859 553.391 288.374C551.174 285.367 553.391 281.195 557.055 281.195C558.887 281.195 560.623 282.359 561.298 284.105C561.49 284.687 561.876 285.173 562.262 285.561C563.226 286.531 564.576 287.113 566.311 287.113C567.565 287.113 568.625 286.725 569.397 286.046C570.168 285.367 570.168 284.493 570.168 283.232Z" fill="white"/><path d="M93.4298 258.391L95.4319 256.936L103.107 257.048C104.33 257.048 105.554 256.376 106.11 255.257L107 253.69L103.774 248.877L105.999 246.079L107 242.05C107.556 240.035 106.11 238.02 104.108 237.796L98.2127 237.125C96.8779 237.013 95.4319 237.684 94.7645 238.916L92.2062 243.84L89.5367 248.094L88.5356 251.899L93.4298 258.391Z" fill="#F1B99E"/><path d="M96.3218 237.46L109.002 232.088L113.896 234.214L111.004 238.915L107.445 239.363L105.888 245.967L98.1015 241.49L96.3218 237.46Z" fill="#F1B99E"/><path d="M146.82 530.82C149.601 532.387 152.159 534.066 154.273 536.081C157.832 539.327 175.295 541.118 176.074 545.93C176.852 550.743 155.941 549.736 149.378 548.729C142.816 547.721 141.37 543.132 137.366 542.237C133.361 541.341 131.248 540.67 131.359 538.319C131.47 535.969 133.25 531.94 133.25 531.94C134.585 532.052 135.808 532.163 137.143 532.275C140.48 532.163 143.706 531.604 146.82 530.82Z" fill="#2D2D2D"/><path d="M112.784 530.372C115.453 532.611 117.9 535.297 120.236 538.207C124.018 543.132 139.034 545.482 140.814 552.757C142.593 560.145 124.797 558.913 119.124 557.57C113.451 556.115 111.115 549.176 107.556 547.945C103.996 546.713 102.106 545.706 101.549 542.012C101.105 538.431 101.772 532.275 101.772 532.275C102.884 532.499 103.996 532.611 105.109 532.723C107.778 532.499 110.337 531.715 112.784 530.372Z" fill="#2D2D2D"/><path d="M129.135 284.022L131.248 285.813C131.248 285.813 141.148 293.536 145.041 299.804C148.934 306.072 155.941 371.101 155.941 371.101L148.155 376.473L150.602 348.939L135.809 326.89L129.135 284.022Z" fill="#2274A5"/><path d="M127.133 494.78C126.354 501.831 119.013 534.737 119.013 534.737C110.67 544.587 95.2095 534.402 95.2095 534.402C95.2095 534.402 103.329 428.295 101.55 412.961C99.7699 397.627 104.219 386.323 104.219 386.323L158.166 390.464C158.166 390.464 160.279 428.631 159.501 434.563C158.722 440.495 158.722 477.319 157.387 490.079C156.052 502.726 150.269 535.073 150.269 535.073C150.269 535.073 149.49 537.871 141.704 538.431C134.029 538.991 132.138 532.275 132.138 532.275C132.138 532.275 136.365 458.068 136.476 436.018L127.133 494.78Z" fill="#273C45"/><path d="M126.688 282.679C125.687 283.014 97.8791 287.492 93.6523 311.332C95.432 321.405 101.55 364.273 100.215 378.264C104.33 379.831 135.697 345.581 135.697 345.581L123.017 312.675L126.688 282.679Z" fill="#2274A5"/><path d="M158.833 398.075C159.389 392.143 147.599 311.332 147.599 311.332L144.707 301.818L141.036 296.222C141.036 296.222 132.805 286.484 128.133 285.141C125.464 284.357 107.556 283.91 105.665 308.869C103.663 336.403 98.7686 395.724 98.7686 395.724C98.7686 395.724 116.12 400.761 133.361 401.768C150.713 402.664 158.833 398.075 158.833 398.075Z" fill="#2274A5"/><path d="M113.896 266.785C114.897 266.561 116.121 284.694 113.451 288.275C109.669 293.424 134.474 295.998 133.695 293.088C133.695 293.088 130.247 278.09 132.694 273.277C135.03 268.464 113.896 266.785 113.896 266.785Z" fill="#F1B99E"/><path d="M132.583 287.379C117.122 282.902 115.454 271.71 115.342 271.598C120.57 280.216 131.804 281.223 131.804 281.223C131.804 282.455 132.361 285.924 132.583 287.379Z" fill="#A77860"/><path d="M124.018 241.602C124.018 241.602 141.148 232.312 143.372 256.712C145.597 281.112 141.704 284.134 129.357 282.455C117.011 280.776 113.896 265.554 111.227 258.391C108.668 251.339 118.123 243.505 124.018 241.602Z" fill="#F1B99E"/><path d="M110.893 236.789C110.893 236.789 99.4359 240.034 98.4349 241.825C97.4338 243.616 94.8755 255.256 94.8755 255.256L98.7686 257.159C98.7686 257.159 98.7686 256.935 99.8809 256.935C100.882 256.935 104.553 257.607 105.554 255.816C106.666 254.137 110.893 236.789 110.893 236.789Z" fill="#EEA886"/><path d="M116.232 263.651L122.238 247.981C123.35 249.437 125.13 251.115 126.91 250.556C127.8 250.332 128.467 249.66 129.246 249.548C131.359 249.325 132.138 252.57 134.251 253.242L136.698 251.787C139.479 252.682 142.371 251.115 143.261 248.429C143.817 246.414 143.038 244.288 142.26 242.273C141.37 239.923 140.369 237.46 138.255 236.005C136.031 234.438 132.916 234.438 131.025 232.536C130.135 231.752 129.246 230.409 128.133 230.745C127.577 230.969 127.132 231.192 126.798 231.528C124.796 232.759 122.127 231.976 119.68 231.976C114.674 232.088 110.67 236.117 107.333 239.811C106.332 240.818 105.442 242.049 104.886 243.281C104.33 244.959 104.107 246.638 104.219 248.317C104.33 252.235 104.552 256.264 105.776 260.07C106.999 263.875 109.224 267.345 112.561 269.471C112.227 269.248 112.783 265.33 112.783 264.77C112.895 263.092 112.895 265.106 112.45 263.651C111.226 260.181 113.34 265.778 116.232 263.651Z" fill="#2D2D2D"/><path d="M113.896 263.203C113.118 261.189 108.78 261.524 109.336 264.77C109.892 267.904 113.451 272.717 114.897 271.822C116.343 270.702 115.008 265.89 113.896 263.203Z" fill="#EEA886"/><path d="M132.694 459.97L133.361 518.956C136.253 481.012 138.033 444.189 136.921 422.699L132.694 459.97Z" fill="#022835"/><path d="M85.1987 311.219C85.1987 311.219 89.6479 289.058 101.216 258.166L88.4243 249.996C88.4243 249.996 79.4147 258.726 72.1847 280.328C64.9547 302.041 85.1987 311.219 85.1987 311.219Z" fill="#2274A5"/><path d="M91.5389 283.014C91.9839 282.679 95.5432 293.536 113.006 287.268L110.114 350.954C110.114 350.954 90.0929 318.831 80.1934 309.093C70.2939 299.356 82.863 277.306 82.863 277.306L91.5389 283.014Z" fill="#2274A5"/><path opacity="0.3" d="M96.3219 255.928C96.3219 255.928 85.755 279.321 87.0897 284.917C88.4245 290.514 101.661 293.983 108.224 288.611C108.224 288.611 100.437 289.618 96.0994 287.38C94.8759 286.708 92.0951 285.813 92.54 283.91C94.6534 275.403 101.883 258.726 101.327 258.055L96.3219 255.928Z" fill="#022835"/><path d="M144.04 298.46C144.04 298.46 153.939 311.108 160.057 330.36C164.951 345.693 174.628 349.723 178.299 350.73C179.188 350.954 179.744 351.738 179.633 352.633C179.411 356.327 178.076 365.281 172.292 366.736C164.84 368.638 157.054 360.915 151.27 356.327C145.374 351.738 144.04 298.46 144.04 298.46Z" fill="#2274A5"/><path opacity="0.3" d="M170.624 362.259C170.624 362.259 155.83 352.969 150.825 334.613L154.384 358.901C154.384 358.901 163.839 368.191 170.957 366.96C177.965 365.728 177.631 359.908 177.631 359.908C177.631 359.908 180.412 355.767 179.522 352.521C178.744 349.387 172.626 351.626 172.292 356.327C172.07 361.139 170.624 362.259 170.624 362.259Z" fill="#022835"/><path d="M175.851 354.311L178.521 355.207L190.534 352.968L198.097 359.124C198.542 359.46 198.542 360.243 198.097 360.467L197.319 360.915C196.651 361.363 195.873 361.363 195.094 361.027L191.646 359.236L183.749 362.482L181.746 364.385C180.412 365.84 178.743 367.631 179.077 369.757L176.407 367.183L173.182 365.616C172.514 361.475 172.959 357.445 175.851 354.311Z" fill="#EEA886"/><path d="M186.752 358.901C186.752 358.901 194.316 362.371 195.651 363.154C196.318 363.602 198.32 364.161 200.322 364.721C202.436 365.281 203.325 367.855 201.879 369.534C199.766 372.22 196.54 375.242 192.981 375.242C186.863 375.018 180.523 374.011 177.965 367.072C175.518 360.132 186.752 358.901 186.752 358.901Z" fill="#EEA886"/></svg>